<svg xmlns="http://www.w3.org/2000/svg" height="800" width="1200" viewBox="-23.425125 -9.7175 203.01775 58.305"><path d="M91.6779 19.4179c0-6.06-4.9288-10.9913-10.9938-10.9913-2.54 0-4.8712.8938-6.7425 2.355l3.7 5.1225c.8213-.7125 1.8725-1.1625 3.0425-1.1625 2.5813 0 4.68 2.0975 4.68 4.6763h-2.47l5.625 7.7437 5.6275-7.7437z" fill="#e30613"/><path d="M69.6428 19.4454c0 6.0612 4.9287 10.9925 10.9925 10.9925 2.54 0 4.8687-.895 6.7425-2.3563l-3.7-5.1225c-.8213.7113-1.8738 1.1625-3.0425 1.1625-2.58 0-4.6788-2.0975-4.6788-4.6762h2.47l-5.6262-7.7438-5.6263 7.7438z" fill="#0e3d75"/><path d="M152.8137 31.645c0 2.4925-1.5912 3.955-4.0837 3.955H7.4388c-2.4938 0-4.085-1.4625-4.085-3.955V7.2225c0-2.4937 1.5912-3.955 4.085-3.955H148.73c2.4925 0 4.0838 1.4612 4.0838 3.955zM148.73 0H7.4388C2.8812 0 0 3.1375 0 7.2225V31.645c0 4.0838 2.8813 7.225 7.4387 7.225H148.73c4.5563 0 7.4375-3.1412 7.4375-7.225V7.2225c0-4.085-2.8812-7.2225-7.4375-7.2225" fill="#0e3d75"/><path d="M68.6246 20.7686v8.4675h-6.1925V9.6311h6.1925v5.4238l-4.1275 5.7137zm79.2875 3.4825v4.985H133.466V9.6311h6.1912v14.62zM60.971 14.6186h-5.2463v14.6175h-6.1912V14.6186H44.287V9.6311h16.684zM126.0284 27h-6.28l1.4625-4.8125h3.31l-2.4075-7.7413-4.4725 14.79h-6.1913l6.1913-19.605h9.1162l6.1913 19.605h-6.1913zM110.9359 9.631v19.605h-4.8163l-7.57-9.2862v9.2862h-5.8475V23.79l4.1275-5.6888h-4.1275v-8.47h5.1613l7.2225 8.9425V9.6311zM40.7196 27H34.441l1.4625-4.8125h3.31l-2.4075-7.7413-4.4725 14.79H21.1546l-2.7525-4.985h-1.2037v-4.4725h1.3337c1.7625 0 2.6225-1.1625 2.6225-2.58 0-1.4187-.9462-2.58-2.6225-2.58h-2.7087v14.6175H9.6309V9.6311h9.115c5.8912 0 8.6 3.1388 8.6 7.395 0 2.4075-1.2038 4.4725-3.2675 5.6738l2.7525 4.3887 5.5025-17.4575h9.1162l6.1925 19.605h-6.1925z" fill="#e30613"/></svg>